<svg width="73" height="21" viewBox="0 0 73 21" fill="none" xmlns="http://www.w3.org/2000/svg">
<path d="M44.352 16H42.32L37.392 8.144H37.36V16H35.2V4.688H37.232L42.192 12.56H42.224V4.688H44.352V16ZM50.268 16.16C48.988 16.16 47.9693 15.792 47.212 15.056C46.4653 14.3093 46.092 13.2427 46.092 11.856C46.092 10.4693 46.4707 9.40267 47.228 8.656C47.9853 7.90933 48.9987 7.536 50.268 7.536C51.1107 7.536 51.8413 7.70667 52.46 8.048C53.0893 8.37867 53.58 8.864 53.932 9.504C54.284 10.144 54.46 10.928 54.46 11.856C54.46 13.2427 54.076 14.3093 53.308 15.056C52.5507 15.792 51.5373 16.16 50.268 16.16ZM50.268 14.48C50.9613 14.48 51.4733 14.2667 51.804 13.84C52.1453 13.4027 52.316 12.7413 52.316 11.856C52.316 10.9707 52.1453 10.3093 51.804 9.872C51.4733 9.43467 50.9613 9.216 50.268 9.216C49.5853 9.216 49.0733 9.43467 48.732 9.872C48.4013 10.3093 48.236 10.9707 48.236 11.856C48.236 12.7413 48.4013 13.4027 48.732 13.84C49.0733 14.2667 49.5853 14.48 50.268 14.48ZM60.177 16H58.081L54.913 7.696H57.137L59.105 13.616H59.153L61.121 7.696H63.345L60.177 16ZM71.9704 16H70.7224C70.2317 16 69.8477 15.8347 69.5704 15.504C69.3037 15.1733 69.1597 14.7627 69.1384 14.272H69.6024C69.3997 14.8587 69.069 15.3227 68.6104 15.664C68.1624 15.9947 67.5864 16.16 66.8824 16.16C66.2957 16.16 65.7677 16.0693 65.2984 15.888C64.8397 15.696 64.477 15.4133 64.2104 15.04C63.9437 14.656 63.8104 14.1707 63.8104 13.584C63.8104 13.0507 63.9117 12.6133 64.1144 12.272C64.3277 11.92 64.605 11.648 64.9464 11.456C65.2877 11.264 65.661 11.1307 66.0664 11.056C66.4717 10.9707 66.8717 10.928 67.2664 10.928H69.1384V10.464C69.1384 10.016 69.0264 9.68533 68.8024 9.472C68.589 9.248 68.2424 9.136 67.7624 9.136C67.2504 9.136 66.8877 9.22667 66.6744 9.408C66.461 9.58933 66.3277 9.86667 66.2744 10.24H64.1304C64.1624 9.664 64.349 9.17333 64.6904 8.768C65.0317 8.36267 65.4744 8.05867 66.0184 7.856C66.5624 7.64267 67.1597 7.536 67.8104 7.536C68.1624 7.536 68.5357 7.57867 68.9304 7.664C69.325 7.74933 69.693 7.904 70.0344 8.128C70.3864 8.352 70.6744 8.66133 70.8984 9.056C71.1224 9.45067 71.2344 9.96267 71.2344 10.592V14.32H71.9704V16ZM65.8904 13.488C65.8904 13.8507 65.9917 14.1227 66.1944 14.304C66.397 14.4747 66.7224 14.56 67.1704 14.56C67.7997 14.56 68.285 14.4107 68.6264 14.112C68.9677 13.8027 69.1384 13.3867 69.1384 12.864V12.384H67.2824C66.7917 12.384 66.4344 12.48 66.2104 12.672C65.997 12.8533 65.8904 13.1253 65.8904 13.488Z" fill="url(#paint0_linear_123_40)"/>
<path d="M3.168 16.224C2.57067 16.224 2.08 16.1013 1.696 15.856C1.312 15.6107 1.02933 15.2853 0.848 14.88C0.666667 14.4747 0.576 14.032 0.576 13.552C0.576 12.9973 0.688 12.4373 0.912 11.872C1.136 11.3067 1.45067 10.7893 1.856 10.32C2.26133 9.84 2.736 9.456 3.28 9.168C3.83467 8.88 4.43733 8.736 5.088 8.736C5.696 8.736 6.18667 8.85867 6.56 9.104C6.944 9.34933 7.22133 9.67467 7.392 10.08C7.57333 10.4747 7.664 10.9067 7.664 11.376C7.664 11.9307 7.552 12.4907 7.328 13.056C7.11467 13.6213 6.80533 14.144 6.4 14.624C5.99467 15.104 5.52 15.4933 4.976 15.792C4.432 16.08 3.82933 16.224 3.168 16.224ZM3.088 15.872C3.504 15.872 3.888 15.7547 4.24 15.52C4.592 15.2853 4.90667 14.9813 5.184 14.608C5.472 14.224 5.712 13.808 5.904 13.36C6.10667 12.9013 6.26133 12.4533 6.368 12.016C6.47467 11.568 6.528 11.1627 6.528 10.8C6.528 10.3307 6.42133 9.93067 6.208 9.6C6.00533 9.25867 5.65333 9.088 5.152 9.088C4.736 9.088 4.352 9.20533 4 9.44C3.648 9.67467 3.328 9.984 3.04 10.368C2.76267 10.7413 2.52267 11.1573 2.32 11.616C2.128 12.064 1.97867 12.512 1.872 12.96C1.76533 13.408 1.712 13.808 1.712 14.16C1.712 14.6187 1.81333 15.0187 2.016 15.36C2.22933 15.7013 2.58667 15.872 3.088 15.872ZM10.6828 16.224C10.0321 16.224 9.52542 16.0267 9.16275 15.632C8.81075 15.2373 8.63475 14.688 8.63475 13.984C8.63475 13.344 8.76808 12.7147 9.03475 12.096C9.30142 11.4667 9.65342 10.9013 10.0908 10.4C10.5388 9.888 11.0348 9.48267 11.5788 9.184C12.1228 8.88533 12.6721 8.736 13.2268 8.736C13.7814 8.736 14.1921 8.896 14.4588 9.216C14.7361 9.536 14.8748 10.0053 14.8748 10.624L14.6828 10.688L16.1548 6.176C16.3041 5.728 16.3308 5.424 16.2348 5.264C16.1494 5.104 15.9201 5.024 15.5468 5.024H15.1148L15.2268 4.64L17.8188 4.592L14.5548 14.64C14.3308 15.344 14.3788 15.696 14.6988 15.696C14.8694 15.696 15.0668 15.5947 15.2908 15.392C15.5254 15.1787 15.7281 14.9173 15.8988 14.608L16.1868 14.8C15.9094 15.2693 15.6054 15.6267 15.2748 15.872C14.9441 16.1067 14.5921 16.224 14.2188 16.224C13.9948 16.224 13.8081 16.176 13.6588 16.08C13.5201 15.984 13.4241 15.8453 13.3708 15.664C13.3281 15.472 13.3228 15.2373 13.3548 14.96C13.3868 14.6827 13.4668 14.3573 13.5948 13.984L13.7068 14.08C13.3654 14.7627 12.9281 15.2907 12.3948 15.664C11.8721 16.0373 11.3014 16.224 10.6828 16.224ZM10.9228 15.776C11.3068 15.776 11.6961 15.6427 12.0908 15.376C12.4854 15.1093 12.8534 14.7467 13.1948 14.288C13.5361 13.8187 13.8241 13.28 14.0588 12.672C14.2081 12.2773 14.3201 11.8933 14.3948 11.52C14.4801 11.1467 14.5228 10.8213 14.5228 10.544C14.5228 10.096 14.4268 9.74933 14.2348 9.504C14.0428 9.25867 13.7654 9.136 13.4028 9.136C13.0828 9.136 12.7521 9.232 12.4108 9.424C12.0801 9.616 11.7601 9.88267 11.4508 10.224C11.1521 10.5547 10.8801 10.9333 10.6348 11.36C10.3894 11.7867 10.1921 12.24 10.0428 12.72C9.90408 13.1893 9.82408 13.6587 9.80275 14.128C9.77075 15.2267 10.1441 15.776 10.9228 15.776ZM19.4796 16.224C18.829 16.224 18.3223 16.0267 17.9596 15.632C17.6076 15.2373 17.4316 14.688 17.4316 13.984C17.4316 13.344 17.565 12.7147 17.8316 12.096C18.0983 11.4667 18.4503 10.9013 18.8876 10.4C19.3356 9.888 19.8316 9.48267 20.3756 9.184C20.9196 8.88533 21.469 8.736 22.0236 8.736C22.5783 8.736 22.989 8.896 23.2556 9.216C23.533 9.536 23.6716 10.0053 23.6716 10.624L23.4796 10.688L24.9516 6.176C25.101 5.728 25.1276 5.424 25.0316 5.264C24.9463 5.104 24.717 5.024 24.3436 5.024H23.9116L24.0236 4.64L26.6156 4.592L23.3516 14.64C23.1276 15.344 23.1756 15.696 23.4956 15.696C23.6663 15.696 23.8636 15.5947 24.0876 15.392C24.3223 15.1787 24.525 14.9173 24.6956 14.608L24.9836 14.8C24.7063 15.2693 24.4023 15.6267 24.0716 15.872C23.741 16.1067 23.389 16.224 23.0156 16.224C22.7916 16.224 22.605 16.176 22.4556 16.08C22.317 15.984 22.221 15.8453 22.1676 15.664C22.125 15.472 22.1196 15.2373 22.1516 14.96C22.1836 14.6827 22.2636 14.3573 22.3916 13.984L22.5036 14.08C22.1623 14.7627 21.725 15.2907 21.1916 15.664C20.669 16.0373 20.0983 16.224 19.4796 16.224ZM19.7196 15.776C20.1036 15.776 20.493 15.6427 20.8876 15.376C21.2823 15.1093 21.6503 14.7467 21.9916 14.288C22.333 13.8187 22.621 13.28 22.8556 12.672C23.005 12.2773 23.117 11.8933 23.1916 11.52C23.277 11.1467 23.3196 10.8213 23.3196 10.544C23.3196 10.096 23.2236 9.74933 23.0316 9.504C22.8396 9.25867 22.5623 9.136 22.1996 9.136C21.8796 9.136 21.549 9.232 21.2076 9.424C20.877 9.616 20.557 9.88267 20.2476 10.224C19.949 10.5547 19.677 10.9333 19.4316 11.36C19.1863 11.7867 18.989 12.24 18.8396 12.72C18.701 13.1893 18.621 13.6587 18.5996 14.128C18.5676 15.2267 18.941 15.776 19.7196 15.776ZM28.8045 16.224C28.0792 16.224 27.4978 15.9787 27.0605 15.488C26.6232 14.9973 26.4045 14.3467 26.4045 13.536C26.4045 12.928 26.5218 12.3413 26.7565 11.776C27.0018 11.2 27.3325 10.688 27.7485 10.24C28.1645 9.792 28.6285 9.43467 29.1405 9.168C29.6525 8.90133 30.1805 8.768 30.7245 8.768C31.2472 8.768 31.6578 8.89067 31.9565 9.136C32.2552 9.38133 32.4045 9.72267 32.4045 10.16C32.4045 10.7253 32.1272 11.2 31.5725 11.584C31.0178 11.9573 30.2445 12.1973 29.2525 12.304L27.7165 12.464L27.7645 12.128L28.9165 11.968C29.6738 11.8613 30.2818 11.6213 30.7405 11.248C31.1992 10.864 31.4285 10.4107 31.4285 9.888C31.4285 9.35467 31.1885 9.088 30.7085 9.088C30.3565 9.088 29.9938 9.232 29.6205 9.52C29.2578 9.79733 28.9218 10.1707 28.6125 10.64C28.3032 11.0987 28.0525 11.6053 27.8605 12.16C27.6685 12.7147 27.5725 13.264 27.5725 13.808C27.5725 14.416 27.6952 14.8907 27.9405 15.232C28.1965 15.5733 28.5538 15.744 29.0125 15.744C29.3538 15.744 29.6952 15.6427 30.0365 15.44C30.3885 15.2267 30.7085 14.9333 30.9965 14.56L31.2685 14.784C30.9272 15.2747 30.5485 15.6373 30.1325 15.872C29.7272 16.1067 29.2845 16.224 28.8045 16.224Z" fill="url(#paint1_linear_123_40)"/>
<defs>
<linearGradient id="paint0_linear_123_40" x1="52.4315" y1="1.90476" x2="52.4315" y2="17.7381" gradientUnits="userSpaceOnUse">
<stop stop-color="#E7E0E0" style="stop-color:#E7E0E0;stop-color:color(display-p3 0.9046 0.8769 0.8769);stop-opacity:1;"/>
<stop offset="1" stop-color="#454545" style="stop-color:#454545;stop-color:color(display-p3 0.2720 0.2720 0.2720);stop-opacity:1;"/>
</linearGradient>
<linearGradient id="paint1_linear_123_40" x1="15.5959" y1="1" x2="15.5959" y2="18.5" gradientUnits="userSpaceOnUse">
<stop stop-color="#E7E0E0" style="stop-color:#E7E0E0;stop-color:color(display-p3 0.9046 0.8769 0.8769);stop-opacity:1;"/>
<stop offset="1" stop-color="#454545" style="stop-color:#454545;stop-color:color(display-p3 0.2720 0.2720 0.2720);stop-opacity:1;"/>
</linearGradient>
</defs>
</svg>
